<svg width="404" height="320" viewBox="0 0 404 320" fill="none" xmlns="http://www.w3.org/2000/svg">
<path fill-rule="evenodd" clip-rule="evenodd" d="M361.971 112.545H41.9709V260.641C41.9702 264.082 43.0789 267.432 45.1325 270.193C47.186 272.954 50.0751 274.98 53.3709 275.969L197.371 319.169C200.372 320.065 203.57 320.065 206.571 319.169L350.571 275.969C353.867 274.98 356.756 272.954 358.809 270.193C360.863 267.432 361.972 264.082 361.971 260.641V112.545Z" fill="url(#paint0_linear_289_13)"/>
<path fill-rule="evenodd" clip-rule="evenodd" d="M361.971 112.545H201.971C201.971 112.545 200.419 319.841 201.971 319.841C203.523 319.841 205.067 319.617 206.571 319.169L350.571 275.969C353.867 274.98 356.756 272.954 358.81 270.193C360.863 267.432 361.972 264.082 361.971 260.641V112.545Z" fill="url(#paint1_linear_289_13)"/>
<path fill-rule="evenodd" clip-rule="evenodd" d="M201.971 164.457L41.9711 112.545L1.37106 172.737C0.677065 173.764 0.231294 174.939 0.0689208 176.168C-0.0934521 177.397 0.0320143 178.647 0.435422 179.819C0.838829 180.991 1.50914 182.053 2.39345 182.922C3.27777 183.791 4.35189 184.442 5.53106 184.825L149.491 231.593C151.141 232.129 152.92 232.115 154.56 231.552C156.201 230.989 157.614 229.909 158.587 228.473L201.971 164.457Z" fill="url(#paint2_linear_289_13)"/>
<path fill-rule="evenodd" clip-rule="evenodd" d="M361.971 112.545L201.971 164.457L245.355 228.473C246.328 229.909 247.741 230.989 249.382 231.552C251.022 232.115 252.802 232.129 254.451 231.593L398.411 184.825C399.59 184.442 400.664 183.791 401.549 182.922C402.433 182.053 403.103 180.991 403.507 179.819C403.91 178.647 404.035 177.397 403.873 176.168C403.711 174.939 403.265 173.764 402.571 172.737L361.971 112.545Z" fill="url(#paint3_linear_289_13)"/>
<path fill-rule="evenodd" clip-rule="evenodd" d="M163.243 3.49675C162.268 2.06546 160.855 0.989116 159.217 0.429401C157.578 -0.130314 155.802 -0.143177 154.155 0.392749L10.1872 47.1688C9.00716 47.5489 7.93189 48.1986 7.04654 49.0664C6.1612 49.9343 5.49011 50.9963 5.08645 52.1685C4.68279 53.3407 4.55764 54.5908 4.72092 55.8197C4.8842 57.0486 5.33143 58.2226 6.02717 59.2488L41.9712 112.545L201.971 60.4568L163.243 3.49675Z" fill="url(#paint4_linear_289_13)"/>
<path fill-rule="evenodd" clip-rule="evenodd" d="M397.915 59.2488C398.607 58.2217 399.052 57.048 399.213 55.8199C399.375 54.5919 399.249 53.3431 398.846 52.172C398.442 51.0008 397.773 49.9394 396.889 49.0711C396.006 48.2029 394.933 47.5517 393.755 47.1688L249.787 0.392749C248.14 -0.143177 246.364 -0.130314 244.725 0.429401C243.087 0.989116 241.674 2.06546 240.699 3.49675L201.971 60.4568L361.971 112.545L397.915 59.2488Z" fill="url(#paint5_linear_289_13)"/>
<path fill-rule="evenodd" clip-rule="evenodd" d="M361.971 112.545L201.971 60.4565L41.9709 112.545L201.971 164.457L361.971 112.545Z" fill="url(#paint6_linear_289_13)"/>
<path fill-rule="evenodd" clip-rule="evenodd" d="M201.971 164.457V60.4565L41.9709 112.545L201.971 164.457Z" fill="url(#paint7_linear_289_13)"/>
<defs>
<linearGradient id="paint0_linear_289_13" x1="41.9709" y1="216.193" x2="361.971" y2="216.193" gradientUnits="userSpaceOnUse">
<stop stop-color="#CADCF0"/>
<stop offset="1" stop-color="#A4BBDB"/>
</linearGradient>
<linearGradient id="paint1_linear_289_13" x1="201.283" y1="216.193" x2="361.971" y2="216.193" gradientUnits="userSpaceOnUse">
<stop stop-color="#A4BBDB"/>
<stop offset="1" stop-color="#8DA3BE"/>
</linearGradient>
<linearGradient id="paint2_linear_289_13" x1="43.035" y1="112.481" x2="65.397" y2="260.428" gradientUnits="userSpaceOnUse">
<stop stop-color="#E9F3FC"/>
<stop offset="1" stop-color="#CADCF0"/>
</linearGradient>
<linearGradient id="paint3_linear_289_13" x1="202.619" y1="163.913" x2="371.289" y2="260.92" gradientUnits="userSpaceOnUse">
<stop stop-color="#E9F3FC"/>
<stop offset="1" stop-color="#CADCF0"/>
</linearGradient>
<linearGradient id="paint4_linear_289_13" x1="21.0272" y1="81.4968" x2="45.1635" y2="-32.2816" gradientUnits="userSpaceOnUse">
<stop stop-color="#E9F3FC"/>
<stop offset="1" stop-color="#CADCF0"/>
</linearGradient>
<linearGradient id="paint5_linear_289_13" x1="244.803" y1="-1.53525" x2="253.433" y2="138.903" gradientUnits="userSpaceOnUse">
<stop stop-color="#E9F3FC"/>
<stop offset="1" stop-color="#CADCF0"/>
</linearGradient>
<linearGradient id="paint6_linear_289_13" x1="41.9709" y1="112.457" x2="361.971" y2="112.457" gradientUnits="userSpaceOnUse">
<stop stop-color="#CADCF0"/>
<stop offset="1" stop-color="#A4BBDB"/>
</linearGradient>
<linearGradient id="paint7_linear_289_13" x1="218.427" y1="58.1537" x2="221.874" y2="187.38" gradientUnits="userSpaceOnUse">
<stop stop-color="#A4BBDB"/>
<stop offset="1" stop-color="#8DA3BE"/>
</linearGradient>
</defs>
</svg>
