<svg width="163" height="163" viewBox="0 0 163 163" fill="none" xmlns="http://www.w3.org/2000/svg">
<g clipPath="url(#clip0_515_3751)">
<path d="M151.654 35.076C151.654 28.2672 146.083 22.6963 139.274 22.6963H46.4222C39.6134 22.6963 34.0425 28.2672 34.0425 35.076V150.62C34.0425 157.429 39.6134 163 46.4222 163H116.568L151.644 129.987L151.654 35.076Z" fill="#DADEE0"/>
<path d="M34.0424 35.076C34.0424 28.2671 39.6133 22.6962 46.4221 22.6962H128.958V12.3797C128.958 5.57089 123.387 0 116.578 0H23.7259C16.9171 0 11.3462 5.57089 11.3462 12.3797V127.924C11.3462 134.733 16.9171 140.304 23.7259 140.304H34.0424V35.076Z" fill="#1BB7EA"/>
<path d="M128.95 129.987H151.646L116.57 163V142.367C116.57 135.558 122.141 129.987 128.95 129.987Z" fill="#F2F2F2"/>
<path d="M64.9917 77.3736H120.701C121.521 77.3736 122.309 77.0475 122.889 76.4671C123.469 75.8867 123.795 75.0995 123.795 74.2786C123.796 73.8722 123.716 73.4696 123.56 73.0941C123.405 72.7185 123.177 72.3772 122.889 72.0898C122.602 71.8024 122.261 71.5744 121.885 71.419C121.51 71.2635 121.107 71.1835 120.701 71.1837H64.9917C64.5852 71.1835 64.1827 71.2635 63.8071 71.419C63.4315 71.5744 63.0903 71.8024 62.8029 72.0898C62.5154 72.3772 62.2875 72.7185 62.132 73.0941C61.9765 73.4696 61.8966 73.8722 61.8967 74.2786C61.8967 75.0995 62.2228 75.8867 62.8032 76.4671C63.3836 77.0475 64.1708 77.3736 64.9917 77.3736ZM64.9917 56.7407H120.701C121.521 56.7407 122.309 56.4146 122.889 55.8342C123.469 55.2538 123.795 54.4665 123.795 53.6457C123.796 53.2392 123.716 52.8367 123.56 52.4611C123.405 52.0856 123.177 51.7443 122.889 51.4569C122.602 51.1695 122.261 50.9415 121.885 50.786C121.51 50.6306 121.107 50.5506 120.701 50.5508H64.9917C64.5852 50.5506 64.1827 50.6306 63.8071 50.786C63.4315 50.9415 63.0903 51.1695 62.8029 51.4569C62.5154 51.7443 62.2875 52.0856 62.132 52.4611C61.9765 52.8367 61.8966 53.2392 61.8967 53.6457C61.8967 54.4665 62.2228 55.2538 62.8032 55.8342C63.3836 56.4146 64.1708 56.7407 64.9917 56.7407ZM64.9917 98.0065H120.701C121.521 98.0065 122.309 97.6804 122.889 97.1C123.469 96.5196 123.795 95.7324 123.795 94.9115C123.796 94.5051 123.716 94.1025 123.56 93.727C123.405 93.3514 123.177 93.0102 122.889 92.7227C122.602 92.4353 122.261 92.2073 121.885 92.0519C121.51 91.8964 121.107 91.8164 120.701 91.8166H64.9917C64.5852 91.8164 64.1827 91.8964 63.8071 92.0519C63.4315 92.2073 63.0903 92.4353 62.8029 92.7227C62.5154 93.0102 62.2875 93.3514 62.132 93.727C61.9765 94.1025 61.8966 94.5051 61.8967 94.9115C61.8967 95.7324 62.2228 96.5196 62.8032 97.1C63.3836 97.6804 64.1708 98.0065 64.9917 98.0065ZM64.9917 118.639H95.941C96.7619 118.639 97.5491 118.313 98.1295 117.733C98.7099 117.152 99.036 116.365 99.036 115.544C99.0362 115.138 98.9563 114.735 98.8008 114.36C98.6454 113.984 98.4174 113.643 98.13 113.356C97.8425 113.068 97.5013 112.84 97.1257 112.685C96.7501 112.529 96.3475 112.449 95.941 112.45H64.9917C64.5852 112.449 64.1826 112.529 63.807 112.685C63.4314 112.84 63.0902 113.068 62.8027 113.356C62.5153 113.643 62.2873 113.984 62.1319 114.36C61.9764 114.735 61.8965 115.138 61.8967 115.544C61.8967 116.365 62.2228 117.152 62.8032 117.733C63.3836 118.313 64.1708 118.639 64.9917 118.639Z" fill="#1F4254"/>
</g>
<defs>
<clipPath id="clip0_515_3751">
<rect width="163" height="163" fill="white"/>
</clipPath>
</defs></svg>
