<svg width="46" height="46" viewBox="0 0 46 46" fill="none" xmlns="http://www.w3.org/2000/svg">
<g clipPath="url(#clip0_498_3746)">
<path d="M9.06674 42.8668V26.457H1.73432C1.24889 26.457 0.855469 26.855 0.855469 27.3459V44.6259C3.62643 44.2106 6.36883 43.6232 9.06674 42.8669V42.8668Z" fill="#ACD6FC"/>
<path d="M3.63218 27.3459C3.63218 26.8549 4.02561 26.457 4.51085 26.457H1.73432C1.24889 26.457 0.855469 26.855 0.855469 27.3459V44.6258C1.78433 44.4869 2.71014 44.3282 3.63227 44.1499L3.63218 27.3459ZM17.1852 39.9665V17.6382H9.85305C9.3678 17.6382 8.97402 18.0362 8.97402 18.5268V42.8668C11.5721 42.1381 14.34 41.1921 17.1852 39.9665Z" fill="#8AC2FF"/>
<path d="M11.7517 18.5267C11.7517 18.0361 12.1451 17.6381 12.6304 17.6381H9.85373C9.36839 17.6381 8.97461 18.0361 8.97461 18.5267V42.8666C9.90632 42.6051 10.8322 42.3233 11.7517 42.0215V18.5267ZM25.3047 35.6763V8.81934H17.9723C17.4869 8.81934 17.0935 9.21698 17.0935 9.70789V39.9664C19.7874 38.8058 22.5505 37.3939 25.3047 35.6763Z" fill="#54A0FF"/>
<path d="M19.8695 9.70811C19.8695 9.2172 20.263 8.81955 20.7482 8.81955H17.9715C17.4862 8.81955 17.0928 9.2172 17.0928 9.70811V39.9666C18.0285 39.5631 18.9544 39.1371 19.8695 38.6887V9.70811ZM33.4226 29.5054V0.889133C33.4226 0.398496 33.0291 0.000488281 32.5437 0.000488281H26.0901C25.6048 0.000488281 25.2114 0.398496 25.2114 0.889043V35.6765C27.9842 33.9474 30.7479 31.909 33.4226 29.5054Z" fill="#338DEF"/>
<path d="M27.9886 0.889043C27.9886 0.398496 28.3821 0.000488281 28.8678 0.000488281H26.0908C25.6053 0.000488281 25.2119 0.398496 25.2119 0.889043V35.6765C26.1545 35.0886 27.0805 34.4743 27.9886 33.8344V0.889043Z" fill="#2388E2"/>
<path d="M45.6897 20.2096H36.5256C36.2519 20.2096 36.1122 20.5387 36.3024 20.7356L38.7918 23.3109C38.8457 23.3668 38.8767 23.4409 38.8788 23.5185C38.881 23.5962 38.854 23.6718 38.8033 23.7306C26.2774 38.1853 10.1689 42.7458 0.372671 44.1651C0.269072 44.1802 0.174376 44.2321 0.105932 44.3113C0.0374882 44.3905 -0.00011922 44.4917 2.83932e-07 44.5964C2.83932e-07 44.8431 0.204574 45.0418 0.451285 45.0331C25.3061 44.1469 40.7188 29.9597 42.662 28.0733C42.7191 28.0181 42.7952 27.9868 42.8746 27.986C42.954 27.9853 43.0307 28.015 43.0888 28.0691L45.4784 30.2864C45.677 30.471 45.9999 30.3299 45.9999 30.0589V20.5198C45.9999 20.4375 45.9672 20.3586 45.909 20.3004C45.8509 20.2422 45.772 20.2095 45.6897 20.2095V20.2096Z" fill="#FECA57"/>
<path d="M4.03938 44.5964C4.03934 44.4917 4.077 44.3905 4.14547 44.3113C4.21394 44.2321 4.30863 44.1802 4.41223 44.1651C14.2083 42.7458 30.317 38.1851 42.8429 23.7305C42.8936 23.6718 42.9205 23.5962 42.9184 23.5186C42.9162 23.441 42.8851 23.367 42.8312 23.3111L40.3423 20.7355C40.1518 20.5387 40.2914 20.2095 40.5655 20.2095H36.5257C36.252 20.2095 36.1122 20.5387 36.3024 20.7355L38.7918 23.3111C38.8457 23.367 38.8768 23.441 38.8789 23.5186C38.881 23.5962 38.8541 23.6718 38.8033 23.7305C26.2775 38.1852 10.1689 42.7458 0.372672 44.1651C0.269073 44.1801 0.174376 44.232 0.105932 44.3113C0.0374883 44.3905 -0.00011922 44.4917 2.83933e-07 44.5964C2.83933e-07 44.8431 0.204574 45.0417 0.451285 45.033C1.66731 44.9893 2.88193 44.9128 4.09382 44.8035C4.0587 44.7401 4.03992 44.6689 4.03938 44.5964Z" fill="#F4B537"/>
</g>
<defs>
<clipPath id="clip0_498_3746">
<rect width="46" height="46" fill="white"/>
</clipPath>
</defs>
</svg>
