<svg width="41" height="41" viewBox="0 0 41 41" fill="none" xmlns="http://www.w3.org/2000/svg">
<g clipPath="url(#clip0_498_3745)">
<path d="M25.953 8.80142L30.3007 5.32325C31.3069 4.52033 31.6828 3.21688 31.2574 2.00225C31.0586 1.41497 30.6797 0.905324 30.1746 0.545855C29.6694 0.186385 29.0637 -0.00459783 28.4438 8.40685e-05H12.5563C11.2716 8.40685e-05 10.1663 0.785918 9.74092 2.00225C9.53118 2.58612 9.51072 3.22123 9.68245 3.81738C9.85418 4.41354 10.2094 4.94044 10.6976 5.32325L15.047 8.80142C9.62133 12.9544 5.125 22.1145 5.125 29.4688C5.125 35.2071 8.16242 41.0001 14.9479 41.0001H26.4792C32.2755 41.0001 35.875 36.5806 35.875 29.4688C35.875 22.1145 31.3787 12.9544 25.953 8.80142Z" fill="#4CAF50"/>
<path d="M29.4688 7.6875H11.5312C11.1914 7.6875 10.8656 7.82249 10.6253 8.06277C10.385 8.30305 10.25 8.62894 10.25 8.96875C10.25 9.30856 10.385 9.63445 10.6253 9.87473C10.8656 10.115 11.1914 10.25 11.5312 10.25H29.4688C29.8086 10.25 30.1345 10.115 30.3747 9.87473C30.615 9.63445 30.75 9.30856 30.75 8.96875C30.75 8.62894 30.615 8.30305 30.3747 8.06277C30.1345 7.82249 29.8086 7.6875 29.4688 7.6875Z" fill="#388E3C"/>
<path d="M21.1492 31.6043H17.5105C17.1707 31.6043 16.8448 31.4693 16.6045 31.2291C16.3642 30.9888 16.2292 30.6629 16.2292 30.3231C16.2292 29.9833 16.3642 29.6574 16.6045 29.4171C16.8448 29.1768 17.1707 29.0418 17.5105 29.0418H21.1492C21.2883 29.0418 21.4261 29.0144 21.5546 28.9612C21.6831 28.908 21.7998 28.83 21.8982 28.7316C21.9965 28.6333 22.0746 28.5165 22.1278 28.388C22.181 28.2595 22.2084 28.1218 22.2084 27.9827C22.21 27.8423 22.1838 27.7031 22.1313 27.5729C22.0789 27.4427 22.0012 27.3242 21.9028 27.2242C21.8043 27.1241 21.6871 27.0446 21.5577 26.99C21.4284 26.9355 21.2896 26.9071 21.1492 26.9064H19.8509C18.8881 26.9064 17.9648 26.5239 17.284 25.8431C16.6032 25.1624 16.2207 24.239 16.2207 23.2762C16.2207 22.3134 16.6032 21.3901 17.284 20.7093C17.9648 20.0285 18.8881 19.646 19.8509 19.646H23.4897C23.8295 19.646 24.1554 19.781 24.3956 20.0213C24.6359 20.2615 24.7709 20.5874 24.7709 20.9272C24.7709 21.2671 24.6359 21.5929 24.3956 21.8332C24.1554 22.0735 23.8295 22.2085 23.4897 22.2085H19.8509C19.57 22.2085 19.3006 22.3201 19.102 22.5187C18.9033 22.7174 18.7917 22.9868 18.7917 23.2677C18.7917 23.869 19.2667 24.3439 19.8509 24.3439H21.1492C22.112 24.3439 23.0354 24.7264 23.7162 25.4072C24.397 26.088 24.7795 27.0113 24.7795 27.9741C24.7795 28.9369 24.397 29.8603 23.7162 30.5411C23.0354 31.2219 22.112 31.6043 21.1492 31.6043Z" fill="#FAFAFA"/>
<path d="M20.5 22.2085C20.1602 22.2085 19.8343 22.0735 19.594 21.8332C19.3537 21.5929 19.2188 21.2671 19.2188 20.9272V18.3647C19.2188 18.0249 19.3537 17.699 19.594 17.4588C19.8343 17.2185 20.1602 17.0835 20.5 17.0835C20.8398 17.0835 21.1657 17.2185 21.406 17.4588C21.6463 17.699 21.7812 18.0249 21.7812 18.3647V20.9272C21.7812 21.2671 21.6463 21.5929 21.406 21.8332C21.1657 22.0735 20.8398 22.2085 20.5 22.2085ZM20.5 34.1668C20.1602 34.1668 19.8343 34.0318 19.594 33.7916C19.3537 33.5513 19.2188 33.2254 19.2188 32.8856V30.3231C19.2188 29.9833 19.3537 29.6574 19.594 29.4171C19.8343 29.1768 20.1602 29.0418 20.5 29.0418C20.8398 29.0418 21.1657 29.1768 21.406 29.4171C21.6463 29.6574 21.7812 29.9833 21.7812 30.3231V32.8856C21.7812 33.2254 21.6463 33.5513 21.406 33.7916C21.1657 34.0318 20.8398 34.1668 20.5 34.1668Z" fill="#FAFAFA"/>
<path d="M20.5 22.2088H19.8508C19.5699 22.2088 19.3005 22.3204 19.1019 22.519C18.9033 22.7177 18.7917 22.9871 18.7917 23.268C18.7917 23.8693 19.2666 24.3442 19.8508 24.3442H20.5V22.2088ZM20.5 10.2505H13.3899C8.73471 14.8374 5.125 22.8785 5.125 29.4692C5.125 35.2075 8.16242 41.0005 14.9479 41.0005H20.5V34.1672C20.1602 34.1672 19.8343 34.0322 19.594 33.7919C19.3537 33.5516 19.2188 33.2257 19.2188 32.8859V31.6047H17.5104C17.1706 31.6047 16.8447 31.4697 16.6044 31.2294C16.3642 30.9891 16.2292 30.6632 16.2292 30.3234C16.2292 29.9836 16.3642 29.6577 16.6044 29.4174C16.8447 29.1771 17.1706 29.0422 17.5104 29.0422H20.5V26.9067H19.8508C18.8906 26.9058 17.9699 26.524 17.2909 25.845C16.6119 25.166 16.2301 24.2453 16.2292 23.2851C16.2292 21.4896 17.5224 20.0017 19.2188 19.701V18.3651C19.2188 18.0253 19.3537 17.6994 19.594 17.4591C19.8343 17.2188 20.1602 17.0838 20.5 17.0838V10.2505ZM20.5 0.000488281H12.5563C11.2716 0.000488281 10.1663 0.786322 9.74092 2.00266C9.53118 2.58652 9.51072 3.22163 9.68245 3.81779C9.85418 4.41394 10.2094 4.94084 10.6976 5.32366L13.653 7.68799H20.5V0.000488281Z" fill="#429846"/>
<path d="M20.5 7.6875H11.5312C11.1914 7.6875 10.8656 7.82249 10.6253 8.06277C10.385 8.30305 10.25 8.62894 10.25 8.96875C10.25 9.30856 10.385 9.63445 10.6253 9.87473C10.8656 10.115 11.1914 10.25 11.5312 10.25H20.5V7.6875Z" fill="#317C34"/>
<path d="M20.5003 29.0419H17.5107C17.1709 29.0419 16.845 29.1768 16.6048 29.4171C16.3645 29.6574 16.2295 29.9833 16.2295 30.3231C16.2295 30.6629 16.3645 30.9888 16.6048 31.2291C16.845 31.4694 17.1709 31.6044 17.5107 31.6044H19.2191V30.3231C19.2191 29.9833 19.3541 29.6574 19.5944 29.4171C19.8346 29.1768 20.1605 29.0419 20.5003 29.0419ZM19.2191 19.7007C18.3794 19.8523 17.6197 20.2944 17.0732 20.9496C16.5266 21.6049 16.228 22.4315 16.2295 23.2848C16.2295 25.2818 17.8541 26.9064 19.8512 26.9064H20.5003V24.3439H19.8512C19.7108 24.3433 19.572 24.3148 19.4427 24.2603C19.3134 24.2058 19.1961 24.1262 19.0977 24.0262C18.9992 23.9261 18.9215 23.8076 18.8691 23.6775C18.8166 23.5473 18.7904 23.408 18.792 23.2677C18.792 22.9868 18.9036 22.7174 19.1022 22.5187C19.3009 22.3201 19.5703 22.2085 19.8512 22.2085H20.5003C20.1605 22.2085 19.8346 22.0735 19.5944 21.8332C19.3541 21.593 19.2191 21.2671 19.2191 20.9273V19.7007Z" fill="#DADADA"/>
<path d="M20.5 17.0835C20.1602 17.0835 19.8343 17.2185 19.594 17.4588C19.3537 17.699 19.2188 18.0249 19.2188 18.3647V20.9272C19.2188 21.6345 19.7928 22.2085 20.5 22.2085V17.0835ZM20.5 29.0418C20.1602 29.0418 19.8343 29.1768 19.594 29.4171C19.3537 29.6574 19.2188 29.9833 19.2188 30.3231V32.8856C19.2188 33.5928 19.7928 34.1668 20.5 34.1668V29.0418Z" fill="#DADADA"/>
</g>
<defs>
<clipPath id="clip0_498_3745">
<rect width="41" height="41" fill="white"/>
</clipPath>
</defs>
</svg>
