<svg width="44" height="40" viewBox="0 0 44 40" fill="none" xmlns="http://www.w3.org/2000/svg">
<path d="M27.0517 12.6719H14.6299C13.9433 12.6719 13.3877 12.1163 13.3877 11.4297V6.46094C13.3877 5.77434 13.9433 5.21875 14.6299 5.21875H27.0517C27.7383 5.21875 28.2939 5.77434 28.2939 6.46094V11.4297C28.2939 12.1163 27.7383 12.6719 27.0517 12.6719Z" fill="#FFD580"/>
<path d="M35.3832 0.613898C34.898 0.128701 34.1119 0.128701 33.6267 0.613898L32.0205 2.22004L30.4144 0.613898C29.9292 0.128701 29.143 0.128701 28.6578 0.613898C28.1726 1.0991 28.1726 1.88523 28.6578 2.37043L31.1422 4.8548C31.3849 5.09744 31.7027 5.21876 32.0204 5.21876C32.3382 5.21876 32.6561 5.09744 32.8987 4.8548L35.383 2.37043C35.8685 1.88515 35.8685 1.0991 35.3832 0.613898Z" fill="#F24973"/>
<path d="M32.8988 4.8548L35.3832 2.37043C35.8684 1.88523 35.8684 1.0991 35.3832 0.613898C34.898 0.128701 34.1119 0.128701 33.6267 0.613898L32.0205 2.22004V5.21876C32.3384 5.21876 32.6563 5.09744 32.8988 4.8548Z" fill="#D92C49"/>
<path d="M36.9892 12.6719H27.0518C26.3652 12.6719 25.8096 12.1163 25.8096 11.4297V3.97656C25.8096 3.28996 26.3652 2.73438 27.0518 2.73438H36.9892C37.6758 2.73438 38.2314 3.28996 38.2314 3.97656V11.4297C38.2314 12.1163 37.6758 12.6719 36.9892 12.6719Z" fill="#8AE68A"/>
<path d="M36.9893 2.73438H32.0205V12.6719H36.9893C37.6758 12.6719 38.2314 12.1163 38.2314 11.4297V3.97656C38.2314 3.28996 37.6758 2.73438 36.9893 2.73438Z" fill="#60BF80"/>
<path d="M8.25781 10.1876L6.22758 2.73486H2.04199C1.35539 2.73486 0.799805 2.17927 0.799805 1.49267C0.799805 0.806077 1.35539 0.250488 2.04199 0.250488H7.17619C7.44878 0.250521 7.71379 0.340206 7.93038 0.505718C8.14697 0.671231 8.30311 0.903383 8.37474 1.16639L11.0823 11.1039L8.25781 10.1876ZM34.5043 32.5473H14.6293C13.9451 32.5473 13.3871 31.9905 13.3871 31.3051C13.3871 30.6634 13.8675 30.1321 14.5032 30.069C15.1849 30.0011 15.6848 29.3921 15.6144 28.7091C15.5489 28.0274 14.9375 27.5531 14.2557 27.5967C12.3439 27.7872 10.9028 29.3812 10.9028 31.3051C10.9028 33.36 12.5745 35.0316 14.6294 35.0316H34.5044C35.191 35.0316 35.7466 34.476 35.7466 33.7894C35.7466 33.1028 35.1909 32.5473 34.5043 32.5473Z" fill="#80334D"/>
<path d="M34.5049 32.5469H27.0518V35.0312H34.5049C35.1915 35.0312 35.7471 34.4757 35.7471 33.7891C35.7471 33.1025 35.1915 32.5469 34.5049 32.5469Z" fill="#59243F"/>
<path d="M14.6298 30.0382C14.0742 30.0382 13.5793 29.6682 13.4313 29.1235L8.25684 10.1875H41.9579C42.3219 10.1875 42.6688 10.3477 42.9065 10.6267C43.023 10.7643 43.108 10.9257 43.1558 11.0996C43.2036 11.2735 43.2129 11.4556 43.1831 11.6335L40.6988 26.5397C40.654 26.8093 40.5216 27.0566 40.322 27.2432C40.1224 27.4299 39.8668 27.5455 39.5949 27.5721C11.1444 30.3869 14.9281 30.0382 14.6298 30.0382Z" fill="#F24973"/>
<path d="M41.958 10.1875H27.0518V28.8152C30.3138 28.4911 34.4147 28.0846 39.5949 27.5721C39.8669 27.5455 40.1225 27.4299 40.3221 27.2432C40.5217 27.0566 40.6541 26.8093 40.6988 26.5397L43.1832 11.6335C43.213 11.4556 43.2037 11.2735 43.1559 11.0996C43.1081 10.9257 43.0231 10.7643 42.9066 10.6267C42.7897 10.4892 42.6443 10.3787 42.4805 10.3029C42.3168 10.2271 42.1385 10.1877 41.958 10.1875Z" fill="#D92C49"/>
<path d="M34.5049 40C32.45 40 30.7783 38.3283 30.7783 36.2734C30.7783 34.2185 32.45 32.5469 34.5049 32.5469C36.5598 32.5469 38.2314 34.2185 38.2314 36.2734C38.2314 38.3283 36.5598 40 34.5049 40Z" fill="#59243F"/>
<path d="M34.5049 37.5156C35.1909 37.5156 35.7471 36.9595 35.7471 36.2734C35.7471 35.5874 35.1909 35.0312 34.5049 35.0312C33.8188 35.0312 33.2627 35.5874 33.2627 36.2734C33.2627 36.9595 33.8188 37.5156 34.5049 37.5156Z" fill="#D9E5FF"/>
<path d="M17.1143 40C15.0593 40 13.3877 38.3283 13.3877 36.2734C13.3877 34.2185 15.0593 32.5469 17.1143 32.5469C19.1692 32.5469 20.8408 34.2185 20.8408 36.2734C20.8408 38.3283 19.1692 40 17.1143 40Z" fill="#80334D"/>
<path d="M17.1143 37.5156C17.8003 37.5156 18.3564 36.9595 18.3564 36.2734C18.3564 35.5874 17.8003 35.0312 17.1143 35.0312C16.4282 35.0312 15.8721 35.5874 15.8721 36.2734C15.8721 36.9595 16.4282 37.5156 17.1143 37.5156Z" fill="#ECF2FF"/>
<path d="M34.5049 22.6094C33.8183 22.6094 33.2627 22.0538 33.2627 21.3672V16.3984C33.2627 15.7118 33.8183 15.1562 34.5049 15.1562C35.1915 15.1562 35.7471 15.7118 35.7471 16.3984V21.3672C35.7471 22.0538 35.1915 22.6094 34.5049 22.6094Z" fill="#D9E5FF"/>
<path d="M19.5986 22.6094C18.912 22.6094 18.3564 22.0538 18.3564 21.3672V16.3984C18.3564 15.7118 18.912 15.1562 19.5986 15.1562C20.2852 15.1562 20.8408 15.7118 20.8408 16.3984V21.3672C20.8408 22.0538 20.2852 22.6094 19.5986 22.6094ZM27.0517 22.6094C26.3651 22.6094 25.8096 22.0538 25.8096 21.3672V16.3984C25.8096 15.7118 26.3651 15.1562 27.0517 15.1562C27.7383 15.1562 28.2939 15.7118 28.2939 16.3984V21.3672C28.2939 22.0538 27.7383 22.6094 27.0517 22.6094Z" fill="#ECF2FF"/>
<path d="M28.2939 21.3672V16.3984C28.2939 15.7118 27.7384 15.1562 27.0518 15.1562V22.6094C27.7384 22.6094 28.2939 22.0538 28.2939 21.3672Z" fill="#D9E5FF"/>
</svg>
