<svg width="43" height="43" viewBox="0 0 43 43" fill="none" xmlns="http://www.w3.org/2000/svg">
<path d="M17.7765 27.7514C17.7547 27.6553 17.714 27.5645 17.6567 27.4843C17.5994 27.4041 17.5267 27.3361 17.4429 27.2844L9.25888 22.3473C9.15028 22.2783 9.02429 22.2417 8.89564 22.2417C8.76699 22.2417 8.641 22.2783 8.5324 22.3473L0.348413 27.2844C0.264559 27.3361 0.191867 27.4041 0.13459 27.4843C0.0773116 27.5645 0.0365968 27.6553 0.0148261 27.7514C0.00583803 27.7978 0.000877587 27.845 0 27.8922V37.3513C0.000780588 37.474 0.0332682 37.5945 0.0943126 37.701C0.155357 37.8075 0.242886 37.8964 0.348413 37.9591L8.5324 42.8962C8.64143 42.964 8.76726 42.9999 8.89564 42.9999C9.02403 42.9999 9.14985 42.964 9.25888 42.8962L17.4429 37.9591C17.5484 37.8964 17.6359 37.8075 17.697 37.701C17.758 37.5945 17.7905 37.474 17.7913 37.3513V27.8922C17.7904 27.845 17.7854 27.7978 17.7765 27.7514Z" fill="#3560D8"/>
<path d="M8.89564 32.9777V43.0001C8.76692 43.0025 8.64043 42.9663 8.5324 42.8963L0.348413 37.9592C0.242886 37.8965 0.155357 37.8076 0.0943126 37.7011C0.0332682 37.5946 0.000780588 37.4741 0 37.3513V27.8923C0.000877587 27.845 0.00583803 27.7979 0.0148261 27.7515L8.50275 32.8739C8.62191 32.9434 8.7577 32.9793 8.89564 32.9777Z" fill="#2751AF"/>
<path d="M17.7912 27.8923V37.3513C17.7904 37.4741 17.7579 37.5946 17.6968 37.7011C17.6358 37.8076 17.5483 37.8965 17.4427 37.9592L9.25875 42.8963C9.15072 42.9663 9.02423 43.0025 8.89551 43.0001V32.9777C9.03345 32.9793 9.16924 32.9434 9.2884 32.8739L17.7763 27.7515C17.7853 27.7979 17.7903 27.845 17.7912 27.8923Z" fill="#1A4187"/>
<path d="M42.9806 27.7514C42.9588 27.6553 42.9181 27.5645 42.8608 27.4843C42.8035 27.4041 42.7308 27.3361 42.647 27.2844L34.463 22.3473C34.3544 22.2783 34.2284 22.2417 34.0997 22.2417C33.9711 22.2417 33.8451 22.2783 33.7365 22.3473L25.5525 27.2844C25.4687 27.3361 25.396 27.4041 25.3387 27.4843C25.2814 27.5645 25.2407 27.6553 25.2189 27.7514C25.2099 27.7978 25.205 27.845 25.2041 27.8922V37.3513C25.2049 37.474 25.2374 37.5945 25.2984 37.701C25.3595 37.8075 25.447 37.8964 25.5525 37.9591L33.7365 42.8962C33.8455 42.964 33.9714 42.9999 34.0997 42.9999C34.2281 42.9999 34.354 42.964 34.463 42.8962L42.647 37.9591C42.7525 37.8964 42.84 37.8075 42.9011 37.701C42.9621 37.5945 42.9946 37.474 42.9954 37.3513V27.8922C42.9945 27.845 42.9895 27.7978 42.9806 27.7514Z" fill="#3560D8"/>
<path d="M34.0997 32.9777V43.0001C33.971 43.0025 33.8445 42.9663 33.7365 42.8963L25.5525 37.9592C25.447 37.8965 25.3595 37.8076 25.2984 37.7011C25.2374 37.5946 25.2049 37.4741 25.2041 37.3513V27.8923C25.205 27.845 25.2099 27.7979 25.2189 27.7515L33.7069 32.8739C33.826 32.9434 33.9618 32.9793 34.0997 32.9777Z" fill="#2751AF"/>
<path d="M42.9953 27.8923V37.3513C42.9945 37.4741 42.962 37.5946 42.9009 37.7011C42.8399 37.8076 42.7524 37.8965 42.6468 37.9592L34.4628 42.8963C34.3548 42.9663 34.2283 43.0025 34.0996 43.0001V32.9777C34.2376 32.9793 34.3733 32.9434 34.4925 32.8739L42.9804 27.7515C42.9894 27.7979 42.9944 27.845 42.9953 27.8923Z" fill="#1A4187"/>
<path d="M30.8382 2.38393L28.0287 0.182255C27.9107 0.0873576 27.7688 0.0267381 27.6187 0.00702621C27.4685 -0.0126857 27.3159 0.00926891 27.1773 0.0704891C27.0388 0.131709 26.9198 0.229838 26.8333 0.354143C26.7468 0.478449 26.6962 0.624145 26.6869 0.775298V1.48695H17.7913C17.5947 1.48695 17.4061 1.56505 17.2671 1.70407C17.1281 1.84309 17.05 2.03165 17.05 2.22825V3.71086C17.05 3.90747 17.1281 4.09602 17.2671 4.23504C17.4061 4.37406 17.5947 4.45216 17.7913 4.45216H26.6869V5.16382C26.6959 5.31509 26.7464 5.46097 26.8329 5.58544C26.9193 5.7099 27.0384 5.80816 27.177 5.86942C27.3156 5.93069 27.4684 5.95259 27.6186 5.93274C27.7689 5.91288 27.9107 5.85203 28.0287 5.75686L30.8382 3.55519C30.9297 3.48742 31.0041 3.39914 31.0553 3.29744C31.1066 3.19574 31.1333 3.08344 31.1333 2.96956C31.1333 2.85567 31.1066 2.74338 31.0553 2.64168C31.0041 2.53997 30.9297 2.4517 30.8382 2.38393ZM12.1574 9.48561L14.9669 11.6873C15.0849 11.7822 15.2268 11.8428 15.3769 11.8625C15.5271 11.8822 15.6797 11.8603 15.8182 11.7991C15.9568 11.7378 16.0758 11.6397 16.1623 11.5154C16.2488 11.3911 16.2994 11.2454 16.3087 11.0942V10.3826H25.2043C25.4009 10.3826 25.5895 10.3045 25.7285 10.1655C25.8675 10.0264 25.9456 9.83789 25.9456 9.64129V8.15868C25.9456 7.96208 25.8675 7.77352 25.7285 7.6345C25.5895 7.49548 25.4009 7.41738 25.2043 7.41738H16.3087V6.70573C16.2997 6.55445 16.2492 6.40858 16.1627 6.28411C16.0763 6.15964 15.9572 6.06138 15.8186 6.00012C15.68 5.93885 15.5272 5.91695 15.3769 5.93681C15.2267 5.95666 15.0848 6.01751 14.9669 6.11268L12.1574 8.31435C12.0658 8.38212 11.9915 8.4704 11.9402 8.5721C11.889 8.67381 11.8623 8.7861 11.8623 8.89999C11.8623 9.01387 11.889 9.12616 11.9402 9.22787C11.9915 9.32957 12.0658 9.41785 12.1574 9.48561Z" fill="#3560D8"/>
<path d="M21.4974 36.3283C27.2291 36.3283 31.8756 31.6818 31.8756 25.95C31.8756 20.2183 27.2291 15.5718 21.4974 15.5718C15.7656 15.5718 11.1191 20.2183 11.1191 25.95C11.1191 31.6818 15.7656 36.3283 21.4974 36.3283Z" fill="#F7D33C"/>
<path d="M18.4585 31.8709C18.2672 31.8734 18.0772 31.8376 17.8999 31.7657C17.7226 31.6938 17.5614 31.5871 17.4259 31.4521L15.0196 29.0465C14.8826 28.9095 14.8057 28.7236 14.8057 28.5298C14.8057 28.3361 14.8826 28.1502 15.0196 28.0132L16.053 26.9798C16.19 26.8428 16.3759 26.7658 16.5697 26.7658C16.7634 26.7658 16.9493 26.8428 17.0863 26.9798L18.2724 28.1659L24.1517 19.9374C24.2074 19.8593 24.2779 19.7929 24.3593 19.7421C24.4406 19.6913 24.5312 19.657 24.6258 19.6413C24.7204 19.6255 24.8172 19.6285 24.9106 19.6502C25.004 19.6719 25.0923 19.7118 25.1703 19.7676L26.3564 20.6164C26.4345 20.6722 26.5008 20.7428 26.5517 20.8242C26.6025 20.9056 26.6368 20.9962 26.6525 21.0909C26.6683 21.1855 26.6652 21.2824 26.6436 21.3759C26.6219 21.4694 26.582 21.5577 26.5261 21.6357L19.6446 31.2727C19.5081 31.4589 19.3295 31.6102 19.1234 31.7142C18.9172 31.8182 18.6894 31.8719 18.4585 31.8709Z" fill="white"/>
</svg>
