<svg width="26" height="26" viewBox="0 0 26 26" fill="none" xmlns="http://www.w3.org/2000/svg">
<path d="M20.8567 15.546V17.4815L20.0359 16.9396L19.215 17.4815V15.546H20.8567ZM18.3942 20.5009V22.3976L17.5342 21.8557L16.7134 22.3976V20.5009H18.3942ZM23.3583 20.5009V22.3976L22.5375 21.8557L21.6775 22.3976V20.5009H23.3583Z" fill="black" stroke="black" stroke-miterlimit="10" stroke-linecap="round" stroke-linejoin="round"/>
<path d="M13.2737 1.41699V5.86861C13.2737 6.6428 13.8991 7.30086 14.7199 7.30086H19.4496L14.759 2.26861L13.2737 1.41699Z" stroke="black" stroke-miterlimit="10" stroke-linecap="round" stroke-linejoin="round"/>
<path d="M13.5081 25.417H2.40717C1.62541 25.417 1 24.7976 1 24.0234V2.84925C1 2.07506 1.62541 1.41699 2.44625 1.41699H13.3127C13.7036 1.41699 14.0554 1.57183 14.329 1.8428L19.0586 6.52667C19.3323 6.79764 19.4886 7.14602 19.4886 7.53312V14.0363M13.5081 22.2428H8.54398M13.5081 20.5009H8.54398M15.9707 17.2105H8.54398M14.0554 15.4686H8.54398M16.2052 12.1783H8.54398M14.0554 10.4363H8.54398M4.20521 7.10731H10.4202M10.4202 4.59119H4.20521" stroke="black" stroke-miterlimit="10" stroke-linecap="round" stroke-linejoin="round"/>
<path d="M4.2052 11.2105L4.8697 11.8299L5.80781 10.9008L6.74592 9.9718M4.2052 14.6944H6.74592V17.2105H4.2052V14.6944ZM4.2052 19.7266H6.74592V22.2428H4.2052V19.7266Z" stroke="black" stroke-miterlimit="10" stroke-linecap="round" stroke-linejoin="round"/>
<path d="M20.0358 20.5009H25V25.417H20.0358M20.0358 20.5009V25.417M20.0358 20.5009H15.0717V25.417H20.0358M17.5342 15.546H22.4984V20.4621H17.5342V15.546Z" stroke="black" stroke-miterlimit="10" stroke-linecap="round" stroke-linejoin="round"/>
</svg>
