<svg width="24" height="24" viewBox="0 0 24 24" fill="none" xmlns="http://www.w3.org/2000/svg">
<path d="M19.202 14.3685V16.1427L18.4495 15.6459L17.6971 16.1427V14.3685H19.202ZM16.9446 18.9105V20.6492L16.1564 20.1524L15.4039 20.6492V18.9105H16.9446ZM21.4951 18.9105V20.6492L20.7427 20.1524L19.9544 20.6492V18.9105H21.4951Z" fill="black" stroke="black" stroke-miterlimit="10" stroke-linecap="round" stroke-linejoin="round"/>
<path d="M12.251 1.41699V5.49764C12.251 6.20732 12.8243 6.81054 13.5767 6.81054H17.9122L13.6125 2.19764L12.251 1.41699Z" stroke="black" stroke-miterlimit="10" stroke-linecap="round" stroke-linejoin="round"/>
<path d="M12.4658 23.417H2.2899C1.57329 23.417 1 22.8493 1 22.1396V2.7299C1 2.02022 1.57329 1.41699 2.32573 1.41699H12.2866C12.645 1.41699 12.9674 1.55893 13.2182 1.80731L17.5538 6.10086C17.8046 6.34925 17.9479 6.6686 17.9479 7.02344V12.9847M12.4658 20.5073H7.91531M12.4658 18.9105H7.91531M14.7231 15.8944H7.91531M12.9674 14.2976H7.91531M14.9381 11.2815H7.91531M12.9674 9.68473H7.91531M3.93811 6.63312H9.63518M9.63518 4.32667H3.93811" stroke="black" stroke-miterlimit="10" stroke-linecap="round" stroke-linejoin="round"/>
<path d="M3.93811 10.3944L4.54723 10.9621L5.40717 10.1105L6.2671 9.25891M3.93811 13.5879H6.2671V15.8944H3.93811V13.5879ZM3.93811 18.2008H6.2671V20.5073H3.93811V18.2008Z" stroke="black" stroke-miterlimit="10" stroke-linecap="round" stroke-linejoin="round"/>
<path d="M18.4495 18.9105H23V23.4169H18.4495M18.4495 18.9105V23.4169M18.4495 18.9105H13.899V23.4169H18.4495M16.1564 14.3685H20.7069V18.875H16.1564V14.3685Z" stroke="black" stroke-miterlimit="10" stroke-linecap="round" stroke-linejoin="round"/>
</svg>
