<svg xmlns="http://www.w3.org/2000/svg" width="15" height="15" viewBox="0 0 15 15" fill="none">
  <path fill-rule="evenodd" clip-rule="evenodd" d="M2.5 1.875C2.5 1.70924 2.43415 1.55027 2.31694 1.43306C2.19973 1.31585 2.04076 1.25 1.875 1.25C1.70924 1.25 1.55027 1.31585 1.43306 1.43306C1.31585 1.55027 1.25 1.70924 1.25 1.875V12.625C1.25 12.9234 1.36853 13.2095 1.5795 13.4205C1.79048 13.6315 2.07663 13.75 2.375 13.75H13.125C13.2908 13.75 13.4497 13.6842 13.5669 13.5669C13.6842 13.4497 13.75 13.2908 13.75 13.125C13.75 12.9592 13.6842 12.8003 13.5669 12.6831C13.4497 12.5658 13.2908 12.5 13.125 12.5H2.5V1.875ZM13.5669 4.81687C13.6807 4.699 13.7437 4.54112 13.7423 4.37725C13.7409 4.21338 13.6751 4.05662 13.5593 3.94074C13.4434 3.82486 13.2866 3.75913 13.1228 3.7577C12.9589 3.75628 12.801 3.81928 12.6831 3.93313L8.75 7.86625L6.69187 5.80813C6.57467 5.69096 6.41573 5.62513 6.25 5.62513C6.08427 5.62513 5.92533 5.69096 5.80813 5.80813L3.30813 8.30813C3.24843 8.36578 3.20082 8.43474 3.16806 8.511C3.13531 8.58725 3.11806 8.66926 3.11734 8.75225C3.11662 8.83524 3.13244 8.91754 3.16386 8.99435C3.19529 9.07116 3.2417 9.14094 3.30038 9.19962C3.35906 9.2583 3.42884 9.30471 3.50565 9.33614C3.58246 9.36756 3.66476 9.38338 3.74775 9.38266C3.83074 9.38194 3.91275 9.36469 3.989 9.33194C4.06526 9.29918 4.13422 9.25157 4.19187 9.19187L6.25 7.13375L8.30813 9.19187C8.42533 9.30904 8.58427 9.37487 8.75 9.37487C8.91573 9.37487 9.07467 9.30904 9.19187 9.19187L13.5669 4.81687Z" fill="#5684E0"/>
</svg>