<svg xmlns="http://www.w3.org/2000/svg" width="12" height="12" viewBox="0 0 12 12" fill="none">
  <g clip-path="url(#clip0_568_24)">
    <mask id="mask0_568_24" style="mask-type:luminance" maskUnits="userSpaceOnUse" x="0" y="0" width="12" height="12">
      <path d="M12 0H0V12H12V0Z" fill="white"/>
    </mask>
    <g mask="url(#mask0_568_24)">
      <mask id="path-2-inside-1_568_24" fill="white">
        <path fill-rule="evenodd" clip-rule="evenodd" d="M1 0.5C1 0.223857 0.77614 0 0.5 0C0.223857 0 0 0.223857 0 0.5V11.5C0 11.7761 0.223857 12 0.5 12C0.77614 12 1 11.7761 1 11.5V11H11V11.5C11 11.7761 11.2239 12 11.5 12C11.7761 12 12 11.7761 12 11.5V0.5C12 0.223857 11.7761 0 11.5 0C11.2239 0 11 0.223857 11 0.5V4H10V1.5C10 1.22386 9.77615 1 9.5 1H5.5C5.22385 1 5 1.22386 5 1.5V2H2.5C2.22386 2 2 2.22386 2 2.5V4H1V0.5ZM5 3H3V4H5V3ZM1 5V10H2V6.5C2 6.22385 2.22386 6 2.5 6H6.5C6.77615 6 7 6.22385 7 6.5V7H9.5C9.77615 7 10 7.22385 10 7.5V10H11V5H1ZM9 4V2H6V4H9ZM6 10H3V7H6V10ZM7 10V8H9V10H7Z"/>
      </mask>
      <path fill-rule="evenodd" clip-rule="evenodd" d="M1 0.5C1 0.223857 0.77614 0 0.5 0C0.223857 0 0 0.223857 0 0.5V11.5C0 11.7761 0.223857 12 0.5 12C0.77614 12 1 11.7761 1 11.5V11H11V11.5C11 11.7761 11.2239 12 11.5 12C11.7761 12 12 11.7761 12 11.5V0.5C12 0.223857 11.7761 0 11.5 0C11.2239 0 11 0.223857 11 0.5V4H10V1.5C10 1.22386 9.77615 1 9.5 1H5.5C5.22385 1 5 1.22386 5 1.5V2H2.5C2.22386 2 2 2.22386 2 2.5V4H1V0.5ZM5 3H3V4H5V3ZM1 5V10H2V6.5C2 6.22385 2.22386 6 2.5 6H6.5C6.77615 6 7 6.22385 7 6.5V7H9.5C9.77615 7 10 7.22385 10 7.5V10H11V5H1ZM9 4V2H6V4H9ZM6 10H3V7H6V10ZM7 10V8H9V10H7Z" fill="#5684E0"/>
      <path d="M1 11V10H0V11H1ZM11 11H12V10H11V11ZM11 4V5H12V4H11ZM10 4H9V5H10V4ZM5 2V3H6V2H5ZM2 4V5H3V4H2ZM1 4H0V5H1V4ZM5 3H6V2H5V3ZM3 3V2H2V3H3ZM3 4H2V5H3V4ZM5 4V5H6V4H5ZM1 5V4H0V5H1ZM1 10H0V11H1V10ZM2 10V11H3V10H2ZM7 7H6V8H7V7ZM10 10H9V11H10V10ZM11 10V11H12V10H11ZM11 5H12V4H11V5ZM9 4V5H10V4H9ZM9 2H10V1H9V2ZM6 2V1H5V2H6ZM6 4H5V5H6V4ZM6 10V11H7V10H6ZM3 10H2V11H3V10ZM3 7V6H2V7H3ZM6 7H7V6H6V7ZM7 10H6V11H7V10ZM7 8V7H6V8H7ZM9 8H10V7H9V8ZM9 10V11H10V10H9ZM2 0.5C2 -0.328431 1.32842 -1 0.5 -1V1C0.223859 1 0 0.776146 0 0.5H2ZM0.5 -1C-0.328427 -1 -1 -0.328427 -1 0.5H1C1 0.776142 0.776142 1 0.5 1V-1ZM-1 0.5V11.5H1V0.5H-1ZM-1 11.5C-1 12.3284 -0.328418 13 0.5 13V11C0.776133 11 1 11.2239 1 11.5H-1ZM0.5 13C1.32841 13 2 12.3284 2 11.5H0C0 11.2239 0.223868 11 0.5 11V13ZM2 11.5V11H0V11.5H2ZM1 12H11V10H1V12ZM10 11V11.5H12V11H10ZM10 11.5C10 12.3284 10.6716 13 11.5 13V11C11.7761 11 12 11.2239 12 11.5H10ZM11.5 13C12.3284 13 13 12.3284 13 11.5H11C11 11.2239 11.2239 11 11.5 11V13ZM13 11.5V0.5H11V11.5H13ZM13 0.5C13 -0.328418 12.3284 -1 11.5 -1V1C11.2239 1 11 0.776133 11 0.5H13ZM11.5 -1C10.6716 -1 10 -0.328418 10 0.5H12C12 0.776133 11.7761 1 11.5 1V-1ZM10 0.5V4H12V0.5H10ZM11 3H10V5H11V3ZM11 4V1.5H9V4H11ZM11 1.5C11 0.671588 10.3284 0 9.5 0V2C9.22385 2 9 1.77613 9 1.5H11ZM9.5 0H5.5V2H9.5V0ZM5.5 0C4.67155 0 4 0.671588 4 1.5H6C6 1.77613 5.77615 2 5.5 2V0ZM4 1.5V2H6V1.5H4ZM5 1H2.5V3H5V1ZM2.5 1C1.67158 1 1 1.67158 1 2.5H3C3 2.77614 2.77614 3 2.5 3V1ZM1 2.5V4H3V2.5H1ZM2 3H1V5H2V3ZM2 4V0.5H0V4H2ZM5 2H3V4H5V2ZM2 3V4H4V3H2ZM3 5H5V3H3V5ZM6 4V3H4V4H6ZM0 5V10H2V5H0ZM1 11H2V9H1V11ZM3 10V6.5H1V10H3ZM3 6.5C3 6.77615 2.77613 7 2.5 7V5C1.67159 5 1 5.67155 1 6.5H3ZM2.5 7H6.5V5H2.5V7ZM6.5 7C6.22387 7 6 6.77613 6 6.5H8C8 5.67157 7.32843 5 6.5 5V7ZM6 6.5V7H8V6.5H6ZM7 8H9.5V6H7V8ZM9.5 8C9.22387 8 9 7.77613 9 7.5H11C11 6.67157 10.3284 6 9.5 6V8ZM9 7.5V10H11V7.5H9ZM10 11H11V9H10V11ZM12 10V5H10V10H12ZM11 4H1V6H11V4ZM10 4V2H8V4H10ZM9 1H6V3H9V1ZM5 2V4H7V2H5ZM6 5H9V3H6V5ZM6 9H3V11H6V9ZM4 10V7H2V10H4ZM3 8H6V6H3V8ZM5 7V10H7V7H5ZM8 10V8H6V10H8ZM7 9H9V7H7V9ZM8 8V10H10V8H8ZM9 9H7V11H9V9Z" fill="white" mask="url(#path-2-inside-1_568_24)"/>
    </g>
  </g>
  <defs>
    <clipPath id="clip0_568_24">
      <rect width="12" height="12" fill="white"/>
    </clipPath>
  </defs>
</svg>