<svg xmlns="http://www.w3.org/2000/svg" width="15" height="15" viewBox="0 0 15 15" fill="none">
  <path d="M11.875 4.0625C10.8438 4.0625 10 3.78125 10 3.4375V4.0625C10 4.40625 10.8438 4.6875 11.875 4.6875C12.9062 4.6875 13.75 4.40625 13.75 4.0625V3.4375C13.75 3.78125 12.9062 4.0625 11.875 4.0625Z" fill="#5684E0"/>
  <path d="M11.875 3.125C10.8438 3.125 10 2.84375 10 2.5V3.125C10 3.46875 10.8438 3.75 11.875 3.75C12.9062 3.75 13.75 3.46875 13.75 3.125V2.5C13.75 2.84375 12.9062 3.125 11.875 3.125ZM11.875 5C10.8438 5 10 4.71875 10 4.375V5C10 5.34375 10.8438 5.625 11.875 5.625C12.9062 5.625 13.75 5.34375 13.75 5V4.375C13.75 4.71875 12.9062 5 11.875 5Z" fill="#5684E0"/>
  <path d="M11.875 5.9375C10.8438 5.9375 10 5.65625 10 5.3125V5.9375C10 6.28125 10.8438 6.5625 11.875 6.5625C12.9062 6.5625 13.75 6.28125 13.75 5.9375V5.3125C13.75 5.65625 12.9062 5.9375 11.875 5.9375Z" fill="#5684E0"/>
  <path d="M11.875 6.875C10.8438 6.875 10 6.59375 10 6.25V6.875C10 7.21875 10.8438 7.5 11.875 7.5C12.9062 7.5 13.75 7.21875 13.75 6.875V6.25C13.75 6.59375 12.9062 6.875 11.875 6.875Z" fill="#5684E0"/>
  <path d="M11.875 7.8125C10.8438 7.8125 10 7.53125 10 7.1875V7.8125C10 8.15625 10.8438 8.4375 11.875 8.4375C12.9062 8.4375 13.75 8.15625 13.75 7.8125V7.1875C13.75 7.53125 12.9062 7.8125 11.875 7.8125Z" fill="#5684E0"/>
  <path d="M11.875 8.75C10.8438 8.75 10 8.46875 10 8.125V8.75C10 9.09375 10.8438 9.375 11.875 9.375C12.9062 9.375 13.75 9.09375 13.75 8.75V8.125C13.75 8.46875 12.9062 8.75 11.875 8.75Z" fill="#5684E0"/>
  <path d="M11.875 9.6875C10.8438 9.6875 10 9.40625 10 9.0625V9.6875C10 10.0312 10.8438 10.3125 11.875 10.3125C12.9062 10.3125 13.75 10.0312 13.75 9.6875V9.0625C13.75 9.40625 12.9062 9.6875 11.875 9.6875Z" fill="#5684E0"/>
  <path d="M11.875 10.625C10.8438 10.625 10 10.3437 10 10V10.625C10 10.9687 10.8438 11.25 11.875 11.25C12.9062 11.25 13.75 10.9687 13.75 10.625V10C13.75 10.3437 12.9062 10.625 11.875 10.625Z" fill="#5684E0"/>
  <path d="M11.875 11.5625C10.8438 11.5625 10 11.2812 10 10.9375V11.5625C10 11.9062 10.8438 12.1875 11.875 12.1875C12.9062 12.1875 13.75 11.9062 13.75 11.5625V10.9375C13.75 11.2812 12.9062 11.5625 11.875 11.5625Z" fill="#5684E0"/>
  <path d="M11.875 12.5C10.8438 12.5 10 12.2187 10 11.875V12.5C10 12.8437 10.8438 13.125 11.875 13.125C12.9062 13.125 13.75 12.8437 13.75 12.5V11.875C13.75 12.2187 12.9062 12.5 11.875 12.5Z" fill="#5684E0"/>
  <path d="M10 2.5C10 2.66576 10.1975 2.82473 10.5492 2.94194C10.9008 3.05915 11.3777 3.125 11.875 3.125C12.3723 3.125 12.8492 3.05915 13.2008 2.94194C13.5525 2.82473 13.75 2.66576 13.75 2.5C13.75 2.33424 13.5525 2.17527 13.2008 2.05806C12.8492 1.94085 12.3723 1.875 11.875 1.875C11.3777 1.875 10.9008 1.94085 10.5492 2.05806C10.1975 2.17527 10 2.33424 10 2.5Z" fill="#9B9B9B" fill-opacity="0.2"/>
  <path d="M11.875 3.75C11 3.75 10.2812 3.5625 10.0625 3.28125C10.0312 3.34375 10 3.375 10 3.4375C10 3.78125 10.8438 4.0625 11.875 4.0625C12.9062 4.0625 13.75 3.78125 13.75 3.4375C13.75 3.375 13.7188 3.34375 13.6875 3.28125C13.4688 3.5625 12.75 3.75 11.875 3.75ZM11.875 4.6875C11 4.6875 10.2812 4.5 10.0625 4.21875C10.0312 4.28125 10 4.3125 10 4.375C10 4.71875 10.8438 5 11.875 5C12.9062 5 13.75 4.71875 13.75 4.375C13.75 4.3125 13.7188 4.28125 13.6875 4.21875C13.4688 4.5 12.75 4.6875 11.875 4.6875ZM11.875 5.625C11 5.625 10.2812 5.4375 10.0625 5.15625C10.0312 5.21875 10 5.25 10 5.3125C10 5.65625 10.8438 5.9375 11.875 5.9375C12.9062 5.9375 13.75 5.65625 13.75 5.3125C13.75 5.25 13.7188 5.21875 13.6875 5.15625C13.4688 5.4375 12.75 5.625 11.875 5.625ZM11.875 6.5625C11 6.5625 10.2812 6.375 10.0625 6.09375C10.0312 6.15625 10 6.1875 10 6.25C10 6.59375 10.8438 6.875 11.875 6.875C12.9062 6.875 13.75 6.59375 13.75 6.25C13.75 6.1875 13.7188 6.15625 13.6875 6.09375C13.4688 6.375 12.75 6.5625 11.875 6.5625ZM11.875 7.5C11 7.5 10.2812 7.3125 10.0625 7.03125C10.0312 7.09375 10 7.125 10 7.1875C10 7.53125 10.8438 7.8125 11.875 7.8125C12.9062 7.8125 13.75 7.53125 13.75 7.1875C13.75 7.125 13.7188 7.09375 13.6875 7.03125C13.4688 7.3125 12.75 7.5 11.875 7.5ZM11.875 8.4375C11 8.4375 10.2812 8.25 10.0625 7.96875C10.0312 8.03125 10 8.0625 10 8.125C10 8.46875 10.8438 8.75 11.875 8.75C12.9062 8.75 13.75 8.46875 13.75 8.125C13.75 8.0625 13.7188 8.03125 13.6875 7.96875C13.4688 8.25 12.75 8.4375 11.875 8.4375ZM11.875 9.375C11 9.375 10.2812 9.1875 10.0625 8.90625C10.0312 8.96875 10 9 10 9.0625C10 9.40625 10.8438 9.6875 11.875 9.6875C12.9062 9.6875 13.75 9.40625 13.75 9.0625C13.75 9 13.7188 8.96875 13.6875 8.90625C13.4688 9.1875 12.75 9.375 11.875 9.375ZM11.875 10.3125C11 10.3125 10.2812 10.125 10.0625 9.84375C10.0312 9.90625 10 9.9375 10 10C10 10.3438 10.8438 10.625 11.875 10.625C12.9062 10.625 13.75 10.3438 13.75 10C13.75 9.9375 13.7188 9.90625 13.6875 9.84375C13.4688 10.125 12.75 10.3125 11.875 10.3125ZM11.875 11.25C11 11.25 10.2812 11.0625 10.0625 10.7812C10.0312 10.8437 10 10.875 10 10.9375C10 11.2812 10.8438 11.5625 11.875 11.5625C12.9062 11.5625 13.75 11.2812 13.75 10.9375C13.75 10.875 13.7188 10.8437 13.6875 10.7812C13.4688 11.0625 12.75 11.25 11.875 11.25ZM11.875 12.1875C11 12.1875 10.2812 12 10.0625 11.7187C10.0312 11.7812 10 11.8125 10 11.875C10 12.2188 10.8438 12.5 11.875 12.5C12.9062 12.5 13.75 12.2188 13.75 11.875C13.75 11.8125 13.7188 11.7812 13.6875 11.7187C13.4688 12 12.75 12.1875 11.875 12.1875Z" fill="#9B9B9B" fill-opacity="0.2"/>
  <path d="M3.125 5.9375C2.09375 5.9375 1.25 5.65625 1.25 5.3125V5.9375C1.25 6.28125 2.09375 6.5625 3.125 6.5625C4.15625 6.5625 5 6.28125 5 5.9375V5.3125C5 5.65625 4.15625 5.9375 3.125 5.9375Z" fill="#5684E0"/>
  <path d="M3.125 5C2.09375 5 1.25 4.71875 1.25 4.375V5C1.25 5.34375 2.09375 5.625 3.125 5.625C4.15625 5.625 5 5.34375 5 5V4.375C5 4.71875 4.15625 5 3.125 5ZM3.125 6.875C2.09375 6.875 1.25 6.59375 1.25 6.25V6.875C1.25 7.21875 2.09375 7.5 3.125 7.5C4.15625 7.5 5 7.21875 5 6.875V6.25C5 6.59375 4.15625 6.875 3.125 6.875Z" fill="#5684E0"/>
  <path d="M3.125 7.8125C2.09375 7.8125 1.25 7.53125 1.25 7.1875V7.8125C1.25 8.15625 2.09375 8.4375 3.125 8.4375C4.15625 8.4375 5 8.15625 5 7.8125V7.1875C5 7.53125 4.15625 7.8125 3.125 7.8125Z" fill="#5684E0"/>
  <path d="M3.125 8.75C2.09375 8.75 1.25 8.46875 1.25 8.125V8.75C1.25 9.09375 2.09375 9.375 3.125 9.375C4.15625 9.375 5 9.09375 5 8.75V8.125C5 8.46875 4.15625 8.75 3.125 8.75Z" fill="#5684E0"/>
  <path d="M3.125 9.6875C2.09375 9.6875 1.25 9.40625 1.25 9.0625V9.6875C1.25 10.0312 2.09375 10.3125 3.125 10.3125C4.15625 10.3125 5 10.0312 5 9.6875V9.0625C5 9.40625 4.15625 9.6875 3.125 9.6875Z" fill="#5684E0"/>
  <path d="M3.125 10.625C2.09375 10.625 1.25 10.3437 1.25 10V10.625C1.25 10.9687 2.09375 11.25 3.125 11.25C4.15625 11.25 5 10.9687 5 10.625V10C5 10.3437 4.15625 10.625 3.125 10.625Z" fill="#5684E0"/>
  <path d="M3.125 11.5625C2.09375 11.5625 1.25 11.2812 1.25 10.9375V11.5625C1.25 11.9062 2.09375 12.1875 3.125 12.1875C4.15625 12.1875 5 11.9062 5 11.5625V10.9375C5 11.2812 4.15625 11.5625 3.125 11.5625Z" fill="#5684E0"/>
  <path d="M3.125 12.5C2.09375 12.5 1.25 12.2187 1.25 11.875V12.5C1.25 12.8437 2.09375 13.125 3.125 13.125C4.15625 13.125 5 12.8437 5 12.5V11.875C5 12.2187 4.15625 12.5 3.125 12.5Z" fill="#5684E0"/>
  <path d="M1.25 4.375C1.25 4.54076 1.44754 4.69973 1.79917 4.81694C2.15081 4.93415 2.62772 5 3.125 5C3.62228 5 4.09919 4.93415 4.45082 4.81694C4.80246 4.69973 5 4.54076 5 4.375C5 4.20924 4.80246 4.05027 4.45082 3.93306C4.09919 3.81585 3.62228 3.75 3.125 3.75C2.62772 3.75 2.15081 3.81585 1.79917 3.93306C1.44754 4.05027 1.25 4.20924 1.25 4.375Z" fill="#9B9B9B" fill-opacity="0.2"/>
  <path d="M3.125 5.625C2.25 5.625 1.53125 5.4375 1.3125 5.15625C1.28125 5.21875 1.25 5.25 1.25 5.3125C1.25 5.65625 2.09375 5.9375 3.125 5.9375C4.15625 5.9375 5 5.65625 5 5.3125C5 5.25 4.96875 5.21875 4.9375 5.15625C4.71875 5.4375 4 5.625 3.125 5.625ZM3.125 6.5625C2.25 6.5625 1.53125 6.375 1.3125 6.09375C1.28125 6.15625 1.25 6.1875 1.25 6.25C1.25 6.59375 2.09375 6.875 3.125 6.875C4.15625 6.875 5 6.59375 5 6.25C5 6.1875 4.96875 6.15625 4.9375 6.09375C4.71875 6.375 4 6.5625 3.125 6.5625ZM3.125 7.5C2.25 7.5 1.53125 7.3125 1.3125 7.03125C1.28125 7.09375 1.25 7.125 1.25 7.1875C1.25 7.53125 2.09375 7.8125 3.125 7.8125C4.15625 7.8125 5 7.53125 5 7.1875C5 7.125 4.96875 7.09375 4.9375 7.03125C4.71875 7.3125 4 7.5 3.125 7.5ZM3.125 8.4375C2.25 8.4375 1.53125 8.25 1.3125 7.96875C1.28125 8.03125 1.25 8.0625 1.25 8.125C1.25 8.46875 2.09375 8.75 3.125 8.75C4.15625 8.75 5 8.46875 5 8.125C5 8.0625 4.96875 8.03125 4.9375 7.96875C4.71875 8.25 4 8.4375 3.125 8.4375ZM3.125 9.375C2.25 9.375 1.53125 9.1875 1.3125 8.90625C1.28125 8.96875 1.25 9 1.25 9.0625C1.25 9.40625 2.09375 9.6875 3.125 9.6875C4.15625 9.6875 5 9.40625 5 9.0625C5 9 4.96875 8.96875 4.9375 8.90625C4.71875 9.1875 4 9.375 3.125 9.375ZM3.125 10.3125C2.25 10.3125 1.53125 10.125 1.3125 9.84375C1.28125 9.90625 1.25 9.9375 1.25 10C1.25 10.3438 2.09375 10.625 3.125 10.625C4.15625 10.625 5 10.3438 5 10C5 9.9375 4.96875 9.90625 4.9375 9.84375C4.71875 10.125 4 10.3125 3.125 10.3125ZM3.125 11.25C2.25 11.25 1.53125 11.0625 1.3125 10.7813C1.28125 10.8438 1.25 10.875 1.25 10.9375C1.25 11.2813 2.09375 11.5625 3.125 11.5625C4.15625 11.5625 5 11.2813 5 10.9375C5 10.875 4.96875 10.8438 4.9375 10.7813C4.71875 11.0625 4 11.25 3.125 11.25ZM3.125 12.1875C2.25 12.1875 1.53125 12 1.3125 11.7188C1.28125 11.7813 1.25 11.8125 1.25 11.875C1.25 12.2188 2.09375 12.5 3.125 12.5C4.15625 12.5 5 12.2188 5 11.875C5 11.8125 4.96875 11.7813 4.9375 11.7188C4.71875 12 4 12.1875 3.125 12.1875Z" fill="#9B9B9B" fill-opacity="0.2"/>
  <path d="M7.5 8.75C6.46875 8.75 5.625 8.46875 5.625 8.125V8.75C5.625 9.09375 6.46875 9.375 7.5 9.375C8.53125 9.375 9.375 9.09375 9.375 8.75V8.125C9.375 8.46875 8.53125 8.75 7.5 8.75Z" fill="#5684E0"/>
  <path d="M7.5 7.8125C6.46875 7.8125 5.625 7.53125 5.625 7.1875V7.8125C5.625 8.15625 6.46875 8.4375 7.5 8.4375C8.53125 8.4375 9.375 8.15625 9.375 7.8125V7.1875C9.375 7.53125 8.53125 7.8125 7.5 7.8125ZM7.5 9.6875C6.46875 9.6875 5.625 9.40625 5.625 9.0625V9.6875C5.625 10.0312 6.46875 10.3125 7.5 10.3125C8.53125 10.3125 9.375 10.0312 9.375 9.6875V9.0625C9.375 9.40625 8.53125 9.6875 7.5 9.6875Z" fill="#5684E0"/>
  <path d="M7.5 10.625C6.46875 10.625 5.625 10.3437 5.625 10V10.625C5.625 10.9687 6.46875 11.25 7.5 11.25C8.53125 11.25 9.375 10.9687 9.375 10.625V10C9.375 10.3437 8.53125 10.625 7.5 10.625Z" fill="#5684E0"/>
  <path d="M7.5 11.5625C6.46875 11.5625 5.625 11.2812 5.625 10.9375V11.5625C5.625 11.9062 6.46875 12.1875 7.5 12.1875C8.53125 12.1875 9.375 11.9062 9.375 11.5625V10.9375C9.375 11.2812 8.53125 11.5625 7.5 11.5625Z" fill="#5684E0"/>
  <path d="M7.5 12.5C6.46875 12.5 5.625 12.2187 5.625 11.875V12.5C5.625 12.8437 6.46875 13.125 7.5 13.125C8.53125 13.125 9.375 12.8437 9.375 12.5V11.875C9.375 12.2187 8.53125 12.5 7.5 12.5Z" fill="#5684E0"/>
  <path d="M5.625 7.1875C5.625 7.35326 5.82254 7.51223 6.17417 7.62944C6.52581 7.74665 7.00272 7.8125 7.5 7.8125C7.99728 7.8125 8.47419 7.74665 8.82582 7.62944C9.17746 7.51223 9.375 7.35326 9.375 7.1875C9.375 7.02174 9.17746 6.86277 8.82582 6.74556C8.47419 6.62835 7.99728 6.5625 7.5 6.5625C7.00272 6.5625 6.52581 6.62835 6.17417 6.74556C5.82254 6.86277 5.625 7.02174 5.625 7.1875Z" fill="#9B9B9B" fill-opacity="0.2"/>
  <path d="M7.5 8.4375C6.625 8.4375 5.90625 8.25 5.6875 7.96875C5.65625 8.03125 5.625 8.0625 5.625 8.125C5.625 8.46875 6.46875 8.75 7.5 8.75C8.53125 8.75 9.375 8.46875 9.375 8.125C9.375 8.0625 9.34375 8.03125 9.3125 7.96875C9.09375 8.25 8.375 8.4375 7.5 8.4375ZM7.5 9.375C6.625 9.375 5.90625 9.1875 5.6875 8.90625C5.65625 8.96875 5.625 9 5.625 9.0625C5.625 9.40625 6.46875 9.6875 7.5 9.6875C8.53125 9.6875 9.375 9.40625 9.375 9.0625C9.375 9 9.34375 8.96875 9.3125 8.90625C9.09375 9.1875 8.375 9.375 7.5 9.375ZM7.5 10.3125C6.625 10.3125 5.90625 10.125 5.6875 9.84375C5.65625 9.90625 5.625 9.9375 5.625 10C5.625 10.3438 6.46875 10.625 7.5 10.625C8.53125 10.625 9.375 10.3438 9.375 10C9.375 9.9375 9.34375 9.90625 9.3125 9.84375C9.09375 10.125 8.375 10.3125 7.5 10.3125ZM7.5 11.25C6.625 11.25 5.90625 11.0625 5.6875 10.7812C5.65625 10.8437 5.625 10.875 5.625 10.9375C5.625 11.2812 6.46875 11.5625 7.5 11.5625C8.53125 11.5625 9.375 11.2812 9.375 10.9375C9.375 10.875 9.34375 10.8437 9.3125 10.7812C9.09375 11.0625 8.375 11.25 7.5 11.25ZM7.5 12.1875C6.625 12.1875 5.90625 12 5.6875 11.7187C5.65625 11.7812 5.625 11.8125 5.625 11.875C5.625 12.2188 6.46875 12.5 7.5 12.5C8.53125 12.5 9.375 12.2188 9.375 11.875C9.375 11.8125 9.34375 11.7812 9.3125 11.7187C9.09375 12 8.375 12.1875 7.5 12.1875Z" fill="#9B9B9B" fill-opacity="0.2"/>
</svg>